<svg width="340" height="236" viewBox="0 0 340 236" fill="none" xmlns="http://www.w3.org/2000/svg">
<g clip-path="url(#clip0)">
<path d="M64.5028 50.6636C75.2272 50.6636 83.9211 41.9708 83.9211 31.2476C83.9211 20.5245 75.2272 11.8316 64.5028 11.8316C53.7783 11.8316 45.0845 20.5245 45.0845 31.2476C45.0845 41.9708 53.7783 50.6636 64.5028 50.6636Z" fill="#FF6584"/>
<path d="M158.98 104.094C158.98 149.907 131.742 165.904 98.1416 165.904C64.5414 165.904 37.303 149.907 37.303 104.094C37.303 58.2814 98.1416 0 98.1416 0C98.1416 0 158.98 58.2814 158.98 104.094Z" fill="#F2F2F2"/>
<path d="M95.9252 158.896L96.5484 120.554L122.479 73.1206L96.6461 114.54L96.9262 97.2999L114.798 62.9821L97.0002 92.7377L97.5039 61.731L116.641 34.4097L97.5834 56.8552L97.898 0L95.9198 75.2661L96.0824 72.161L76.6255 42.3827L95.7705 78.1214L93.9576 112.75L93.9036 111.832L71.473 80.4941L93.8356 115.079L93.609 119.409L93.5683 119.474L93.5868 119.83L88.9874 207.687H95.1327L95.87 162.307L118.177 127.807L95.9252 158.896Z" fill="#3F3D56"/>
<path d="M340 122.858C340 160.358 317.704 173.452 290.201 173.452C262.697 173.452 240.401 160.358 240.401 122.858C240.401 85.358 290.201 37.6519 290.201 37.6519C290.201 37.6519 340 85.358 340 122.858Z" fill="#F2F2F2"/>
<path d="M288.387 167.716L288.896 136.331L310.122 97.5046L288.977 131.408L289.206 117.297L303.835 89.2055L289.267 113.562L289.679 88.1816L305.343 65.8178L289.744 84.1908L290.002 37.6519L288.382 99.2606L288.515 96.7192L272.589 72.344L288.26 101.598L286.776 129.944L286.732 129.191L268.371 103.54L286.676 131.849L286.49 135.394L286.457 135.447L286.473 135.738L282.708 207.653H287.738L288.341 170.508L306.601 142.268L288.387 167.716Z" fill="#3F3D56"/>
<path d="M168.269 214.945C261.202 214.945 336.539 211.137 336.539 206.44C336.539 201.743 261.202 197.935 168.269 197.935C75.3368 197.935 0 201.743 0 206.44C0 211.137 75.3368 214.945 168.269 214.945Z" fill="#3F3D56"/>
<path d="M270.778 221.948C286.695 221.948 299.598 221.296 299.598 220.492C299.598 219.687 286.695 219.035 270.778 219.035C254.86 219.035 241.957 219.687 241.957 220.492C241.957 221.296 254.86 221.948 270.778 221.948Z" fill="#3F3D56"/>
<path d="M166.488 236C182.405 236 195.308 235.348 195.308 234.543C195.308 233.739 182.405 233.087 166.488 233.087C150.57 233.087 137.667 233.739 137.667 234.543C137.667 235.348 150.57 236 166.488 236Z" fill="#3F3D56"/>
<path d="M87.3655 226.09C123.73 226.09 153.21 224.6 153.21 222.762C153.21 220.924 123.73 219.434 87.3655 219.434C51.0006 219.434 21.521 220.924 21.521 222.762C21.521 224.6 51.0006 226.09 87.3655 226.09Z" fill="#3F3D56"/>
<path d="M29.4563 195.759C42.6943 195.759 53.4258 185.028 53.4258 171.792C53.4258 158.556 42.6943 147.825 29.4563 147.825C16.2183 147.825 5.48682 158.556 5.48682 171.792C5.48682 185.028 16.2183 195.759 29.4563 195.759Z" fill="#2F2E41"/>
<path d="M25.594 190.557L18.3126 190.471L18.1589 203.515L25.4403 203.601L25.594 190.557Z" fill="#2F2E41"/>
<path d="M40.1566 190.729L32.8752 190.643L32.7215 203.687L40.0029 203.773L40.1566 190.729Z" fill="#2F2E41"/>
<path d="M30.2927 203.81C30.3075 202.554 27.6028 201.503 24.2517 201.463C20.9005 201.424 18.1719 202.411 18.1571 203.667C18.1423 204.924 20.8469 205.974 24.198 206.014C27.5492 206.053 30.2778 205.067 30.2927 203.81Z" fill="#2F2E41"/>
<path d="M44.8589 203.678C44.8738 202.422 42.1691 201.371 38.818 201.332C35.4668 201.292 32.7382 202.279 32.7233 203.535C32.7085 204.792 35.4132 205.842 38.7643 205.882C42.1155 205.921 44.8441 204.935 44.8589 203.678Z" fill="#2F2E41"/>
<path d="M30.1345 173.923C34.6589 173.923 38.3266 170.256 38.3266 165.732C38.3266 161.208 34.6589 157.541 30.1345 157.541C25.6101 157.541 21.9424 161.208 21.9424 165.732C21.9424 170.256 25.6101 173.923 30.1345 173.923Z" fill="white"/>
<path d="M30.1345 168.462C31.6426 168.462 32.8652 167.24 32.8652 165.732C32.8652 164.224 31.6426 163.002 30.1345 163.002C28.6264 163.002 27.4038 164.224 27.4038 165.732C27.4038 167.24 28.6264 168.462 30.1345 168.462Z" fill="#3F3D56"/>
<path d="M6.46932 149.231C4.63616 140.542 10.9257 131.859 20.5174 129.835C30.1091 127.812 39.3708 133.216 41.204 141.905C43.0371 150.594 36.6594 153.715 27.0677 155.738C17.476 157.762 8.30249 157.92 6.46932 149.231Z" fill="#6C63FF"/>
<path d="M66.0198 185.162C66.0198 201.871 56.0862 207.705 43.8314 207.705C43.5475 207.705 43.2641 207.702 42.9811 207.696C42.4133 207.683 41.8509 207.656 41.2953 207.619C30.2355 206.836 21.6429 200.702 21.6429 185.162C21.6429 169.081 42.1956 148.789 43.7395 147.287L43.7422 147.284C43.8017 147.226 43.8314 147.198 43.8314 147.198C43.8314 147.198 66.0198 168.454 66.0198 185.162Z" fill="#6C63FF"/>
<path d="M43.023 205.149L51.1383 193.811L43.0027 206.394L42.9811 207.695C42.4133 207.683 41.8509 207.656 41.2953 207.618L42.17 190.902L42.1632 190.772L42.1781 190.748L42.2605 189.169L34.1046 176.555L42.2862 187.985L42.3052 188.32L42.9662 175.689L35.9838 162.655L43.0514 173.473L43.7395 147.287L43.7422 147.198V147.284L43.6273 167.933L50.5787 159.747L43.5989 169.712L43.415 181.021L49.9054 170.168L43.388 182.685L43.2853 188.971L52.7079 173.866L43.2501 191.165L43.023 205.149Z" fill="#3F3D56"/>
<path d="M216.176 195.499C229.414 195.499 240.145 184.769 240.145 171.533C240.145 158.296 229.414 147.566 216.176 147.566C202.938 147.566 192.206 158.296 192.206 171.533C192.206 184.769 202.938 195.499 216.176 195.499Z" fill="#2F2E41"/>
<path d="M218.222 190.582L211.261 192.72L215.094 205.19L222.054 203.051L218.222 190.582Z" fill="#2F2E41"/>
<path d="M232.142 186.305L225.182 188.444L229.014 200.914L235.975 198.775L232.142 186.305Z" fill="#2F2E41"/>
<path d="M221.607 205.727C224.811 204.743 227.108 202.971 226.739 201.77C226.37 200.569 223.474 200.393 220.27 201.378C217.067 202.362 214.769 204.134 215.138 205.335C215.508 206.536 218.404 206.712 221.607 205.727Z" fill="#2F2E41"/>
<path d="M235.439 201.16C238.643 200.175 240.94 198.403 240.571 197.202C240.202 196.001 237.306 195.825 234.102 196.81C230.899 197.794 228.601 199.566 228.97 200.767C229.339 201.968 232.236 202.144 235.439 201.16Z" fill="#2F2E41"/>
<path d="M214.973 173.746C219.498 173.746 223.165 170.079 223.165 165.555C223.165 161.031 219.498 157.364 214.973 157.364C210.449 157.364 206.781 161.031 206.781 165.555C206.781 170.079 210.449 173.746 214.973 173.746Z" fill="white"/>
<path d="M214.973 168.285C216.481 168.285 217.704 167.063 217.704 165.555C217.704 164.047 216.481 162.824 214.973 162.824C213.465 162.824 212.243 164.047 212.243 165.555C212.243 167.063 213.465 168.285 214.973 168.285Z" fill="#3F3D56"/>
<path d="M187.402 157.057C183.006 149.342 186.347 139.153 194.864 134.302C203.382 129.45 213.851 131.771 218.247 139.487C222.643 147.203 217.522 152.121 209.004 156.973C200.486 161.824 191.799 164.773 187.402 157.057Z" fill="#6C63FF"/>
<path d="M173.427 182.103C173.427 197.44 164.309 202.796 153.059 202.796C152.799 202.796 152.539 202.793 152.279 202.787C151.758 202.776 151.241 202.751 150.731 202.716C140.579 201.998 132.691 196.367 132.691 182.103C132.691 167.341 151.558 148.714 152.975 147.335L152.977 147.332C153.032 147.279 153.059 147.253 153.059 147.253C153.059 147.253 173.427 166.765 173.427 182.103Z" fill="#6C63FF"/>
<path d="M152.317 200.449L159.767 190.041L152.299 201.592L152.279 202.787C151.758 202.776 151.241 202.751 150.731 202.716L151.534 187.371L151.528 187.252L151.542 187.23L151.617 185.781L144.131 174.201L151.641 184.694L151.658 185.001L152.265 173.407L145.856 161.442L152.343 171.372L152.975 147.335L152.977 147.253V147.332L152.872 166.287L159.253 158.773L152.846 167.92L152.677 178.301L158.635 168.338L152.652 179.828L152.558 185.599L161.208 171.733L152.526 187.613L152.317 200.449Z" fill="#3F3D56"/>
<path d="M253.528 188.499C253.528 205.208 243.594 211.042 231.339 211.042C231.056 211.042 230.772 211.039 230.489 211.033C229.921 211.021 229.359 210.993 228.803 210.956C217.744 210.173 209.151 204.039 209.151 188.499C209.151 172.418 229.704 152.126 231.248 150.624L231.25 150.622C231.31 150.563 231.339 150.535 231.339 150.535C231.339 150.535 253.528 171.791 253.528 188.499Z" fill="#6C63FF"/>
<path d="M230.531 208.486L238.646 197.148L230.511 209.731L230.489 211.033C229.921 211.021 229.359 210.993 228.803 210.956L229.678 194.239L229.671 194.109L229.686 194.085L229.769 192.506L221.613 179.892L229.794 191.322L229.813 191.657L230.474 179.027L223.492 165.992L230.559 176.81L231.248 150.624L231.25 150.535V150.622L231.135 171.27L238.087 163.084L231.107 173.049L230.923 184.358L237.413 173.505L230.896 186.022L230.793 192.309L240.216 177.203L230.758 194.502L230.531 208.486Z" fill="#3F3D56"/>
<path d="M217.698 185.88C218.589 184.003 214.462 180.182 208.482 177.346C202.502 174.509 196.932 173.732 196.041 175.609C195.151 177.487 199.277 181.308 205.257 184.144C211.238 186.98 216.808 187.757 217.698 185.88Z" fill="#2F2E41"/>
<path d="M33.2167 183.686C33.9898 181.758 29.6359 178.198 23.4921 175.736C17.3482 173.274 11.741 172.841 10.9679 174.769C10.1948 176.698 14.5487 180.257 20.6925 182.72C26.8364 185.182 32.4436 185.615 33.2167 183.686Z" fill="#2F2E41"/>
</g>
<defs>
<clipPath id="clip0">
<rect width="340" height="236" fill="white"/>
</clipPath>
</defs>
</svg>
